<mxfile host="app.diagrams.net" agent="Mozilla/5.0 (Windows NT 10.0; Win64; x64) AppleWebKit/537.36 (KHTML, like Gecko) Chrome/136.0.0.0 Safari/537.36" version="27.1.1">
  <diagram name="Page-1" id="kcsEbkMYIRXb8iED7YjO">
    <mxGraphModel dx="1869" dy="527" grid="1" gridSize="10" guides="1" tooltips="1" connect="1" arrows="1" fold="1" page="1" pageScale="1" pageWidth="827" pageHeight="1169" math="0" shadow="0">
      <root>
        <mxCell id="0" />
        <mxCell id="1" parent="0" />
        <mxCell id="yRWhBtvss3XVOMyxeGll-229" value="" style="rounded=0;whiteSpace=wrap;html=1;" parent="1" vertex="1">
          <mxGeometry x="-410" y="149" width="630" height="841" as="geometry" />
        </mxCell>
        <mxCell id="yRWhBtvss3XVOMyxeGll-143" value="Holidays&amp;amp;Events" style="shape=folder;fontStyle=1;tabWidth=210;tabHeight=30;tabPosition=left;html=1;boundedLbl=1;labelInHeader=1;container=0;collapsible=0;whiteSpace=wrap;fontSize=19;" parent="1" vertex="1">
          <mxGeometry x="-390" y="160" width="590" height="700" as="geometry" />
        </mxCell>
        <mxCell id="yRWhBtvss3XVOMyxeGll-203" value="" style="html=1;jettySize=18;whiteSpace=wrap;fontSize=13;strokeColor=#3a414a;strokeOpacity=100;strokeWidth=0.8;rounded=0;startArrow=none;endArrow=block;endFill=0;endSize=12;exitX=0.57;exitY=0.005;exitPerimeter=0;lucidId=EKXeJxy7TWS8;" parent="1" edge="1">
          <mxGeometry width="100" height="100" relative="1" as="geometry">
            <Array as="points" />
            <mxPoint x="-82.57334299022887" y="1413.1513900042119" as="targetPoint" />
          </mxGeometry>
        </mxCell>
        <mxCell id="yRWhBtvss3XVOMyxeGll-204" value="" style="html=1;jettySize=18;whiteSpace=wrap;fontSize=13;strokeColor=#3a414a;strokeOpacity=100;strokeWidth=0.8;rounded=0;startArrow=none;endArrow=block;endFill=0;endSize=12;entryX=0.5;entryY=1;lucidId=QKXep6PJ_4Cc;entryDx=0;entryDy=0;" parent="1" edge="1">
          <mxGeometry width="100" height="100" relative="1" as="geometry">
            <Array as="points" />
            <mxPoint x="-35.15885209093403" y="1470.1154673028432" as="sourcePoint" />
          </mxGeometry>
        </mxCell>
        <mxCell id="yRWhBtvss3XVOMyxeGll-205" value="" style="html=1;jettySize=18;whiteSpace=wrap;fontSize=13;strokeColor=#3a414a;strokeOpacity=100;strokeWidth=0.8;rounded=0;startArrow=none;endArrow=block;endFill=0;endSize=12;exitX=0.075;exitY=0.236;exitPerimeter=0;entryX=1;entryY=1;lucidId=ZKXeBE5Ak2jA;entryDx=0;entryDy=0;" parent="1" edge="1">
          <mxGeometry width="100" height="100" relative="1" as="geometry">
            <Array as="points" />
            <mxPoint x="0.6891014879656723" y="1411.6215566577525" as="targetPoint" />
          </mxGeometry>
        </mxCell>
        <mxCell id="yRWhBtvss3XVOMyxeGll-213" value="Manager" style="shape=umlActor;verticalLabelPosition=bottom;verticalAlign=top;html=1;outlineConnect=0;" parent="1" vertex="1">
          <mxGeometry x="-480" y="437.88" width="52.5" height="105" as="geometry" />
        </mxCell>
        <mxCell id="yRWhBtvss3XVOMyxeGll-217" style="rounded=0;orthogonalLoop=1;jettySize=auto;html=1;exitX=0.5;exitY=0.5;exitDx=0;exitDy=0;exitPerimeter=0;entryX=1;entryY=0.5;entryDx=0;entryDy=0;endArrow=none;startFill=0;" parent="1" source="yRWhBtvss3XVOMyxeGll-216" target="yRWhBtvss3XVOMyxeGll-167" edge="1">
          <mxGeometry relative="1" as="geometry" />
        </mxCell>
        <mxCell id="yRWhBtvss3XVOMyxeGll-216" value="Calendarific API" style="shape=umlActor;verticalLabelPosition=bottom;verticalAlign=top;html=1;outlineConnect=0;" parent="1" vertex="1">
          <mxGeometry x="250" y="477.87" width="52.5" height="105" as="geometry" />
        </mxCell>
        <mxCell id="yRWhBtvss3XVOMyxeGll-155" value="Export csv file" style="html=1;overflow=block;blockSpacing=1;whiteSpace=wrap;ellipse;fontSize=13;spacing=3.8;strokeOpacity=0;fillOpacity=100;rounded=1;absoluteArcSize=1;arcSize=9;fillColor=#979ea8;strokeWidth=1.5;lucidId=2WIeNPYyiRF.;" parent="1" vertex="1">
          <mxGeometry x="-150.00000000000003" y="675.7120171776213" width="100" height="70" as="geometry" />
        </mxCell>
        <mxCell id="yRWhBtvss3XVOMyxeGll-156" value="Export XLSX file" style="html=1;overflow=block;blockSpacing=1;whiteSpace=wrap;ellipse;fontSize=13;spacing=3.8;strokeOpacity=0;fillOpacity=100;rounded=1;absoluteArcSize=1;arcSize=9;fillColor=#979ea8;strokeWidth=1.5;lucidId=oXIemN2lJ.WZ;" parent="1" vertex="1">
          <mxGeometry x="-130" y="755.7115137778839" width="100" height="70" as="geometry" />
        </mxCell>
        <mxCell id="yRWhBtvss3XVOMyxeGll-171" value="Consult Events Calender" style="html=1;overflow=block;blockSpacing=1;whiteSpace=wrap;ellipse;fontSize=13;spacing=3.8;strokeOpacity=0;fillOpacity=100;rounded=1;absoluteArcSize=1;arcSize=9;fillColor=#fe7070;strokeWidth=1.5;lucidId=URIeayqkK2Ya;" parent="1" vertex="1">
          <mxGeometry x="-330" y="522.1925742574258" width="120" height="90" as="geometry" />
        </mxCell>
        <mxCell id="yRWhBtvss3XVOMyxeGll-172" value="Day" style="html=1;overflow=block;blockSpacing=1;whiteSpace=wrap;ellipse;fontSize=13;spacing=3.8;strokeOpacity=0;fillOpacity=100;rounded=1;absoluteArcSize=1;arcSize=9;fillColor=#fe7070;strokeWidth=1.5;lucidId=hSIeGXaizuwG;" parent="1" vertex="1">
          <mxGeometry x="-168.29999999999998" y="474.07385184301563" width="61.599999999999994" height="27.108433734939755" as="geometry" />
        </mxCell>
        <mxCell id="yRWhBtvss3XVOMyxeGll-173" value="" style="html=1;jettySize=18;whiteSpace=wrap;fontSize=13;strokeColor=#3a414a;strokeOpacity=100;strokeWidth=0.8;rounded=0;startArrow=none;endArrow=block;endFill=0;endSize=12;exitX=0.088;exitY=0.783;exitPerimeter=0;entryX=1;entryY=0.5;entryPerimeter=0;lucidId=pUIeytUv-r64;" parent="1" source="yRWhBtvss3XVOMyxeGll-172" target="yRWhBtvss3XVOMyxeGll-171" edge="1">
          <mxGeometry width="100" height="100" relative="1" as="geometry">
            <Array as="points" />
          </mxGeometry>
        </mxCell>
        <mxCell id="yRWhBtvss3XVOMyxeGll-180" value="Week" style="html=1;overflow=block;blockSpacing=1;whiteSpace=wrap;ellipse;fontSize=13;spacing=3.8;strokeOpacity=0;fillOpacity=100;rounded=1;absoluteArcSize=1;arcSize=9;fillColor=#fe7070;strokeWidth=1.5;lucidId=03Ie0xpv14W0;" parent="1" vertex="1">
          <mxGeometry x="-168.29999999999998" y="514.3577895741382" width="61.599999999999994" height="27.108433734939755" as="geometry" />
        </mxCell>
        <mxCell id="yRWhBtvss3XVOMyxeGll-174" value="" style="html=1;jettySize=18;whiteSpace=wrap;fontSize=13;strokeColor=#3a414a;strokeOpacity=100;strokeWidth=0.8;rounded=0;startArrow=none;endArrow=block;endFill=0;endSize=12;exitX=0;exitY=0.5;exitPerimeter=0;entryX=0.987;entryY=0.613;entryPerimeter=0;lucidId=KUIev8AdvZol;" parent="1" source="yRWhBtvss3XVOMyxeGll-180" target="yRWhBtvss3XVOMyxeGll-171" edge="1">
          <mxGeometry width="100" height="100" relative="1" as="geometry">
            <Array as="points" />
          </mxGeometry>
        </mxCell>
        <mxCell id="yRWhBtvss3XVOMyxeGll-181" value="Month" style="html=1;overflow=block;blockSpacing=1;whiteSpace=wrap;ellipse;fontSize=13;spacing=3.8;strokeOpacity=0;fillOpacity=100;rounded=1;absoluteArcSize=1;arcSize=9;fillColor=#fe7070;strokeWidth=1.5;lucidId=g4Ie2LoXiZa1;" parent="1" vertex="1">
          <mxGeometry x="-168.29999999999998" y="555.7581832279614" width="61.599999999999994" height="27.108433734939755" as="geometry" />
        </mxCell>
        <mxCell id="yRWhBtvss3XVOMyxeGll-183" value="" style="html=1;jettySize=18;whiteSpace=wrap;fontSize=13;strokeColor=#3a414a;strokeOpacity=100;strokeWidth=0.8;rounded=0;startArrow=none;endArrow=block;endFill=0;endSize=12;exitX=0;exitY=0.5;exitPerimeter=0;entryX=0.96;entryY=0.697;entryPerimeter=0;lucidId=C4IewfTGRhPR;" parent="1" source="yRWhBtvss3XVOMyxeGll-181" target="yRWhBtvss3XVOMyxeGll-171" edge="1">
          <mxGeometry width="100" height="100" relative="1" as="geometry">
            <Array as="points" />
          </mxGeometry>
        </mxCell>
        <mxCell id="yRWhBtvss3XVOMyxeGll-182" value="Year" style="html=1;overflow=block;blockSpacing=1;whiteSpace=wrap;ellipse;fontSize=13;spacing=3.8;strokeOpacity=0;fillOpacity=100;rounded=1;absoluteArcSize=1;arcSize=9;fillColor=#fe7070;strokeWidth=1.5;lucidId=q4IekS3TNCx4;" parent="1" vertex="1">
          <mxGeometry x="-168.29999999999998" y="592.8845699630203" width="61.599999999999994" height="35" as="geometry" />
        </mxCell>
        <mxCell id="yRWhBtvss3XVOMyxeGll-175" value="" style="html=1;jettySize=18;whiteSpace=wrap;fontSize=13;strokeColor=#3a414a;strokeOpacity=100;strokeWidth=0.8;rounded=0;startArrow=none;endArrow=block;endFill=0;endSize=12;exitX=0;exitY=0.5;exitPerimeter=0;entryX=0.943;entryY=0.732;entryPerimeter=0;lucidId=~UIeBte6dq6A;" parent="1" source="yRWhBtvss3XVOMyxeGll-182" target="yRWhBtvss3XVOMyxeGll-171" edge="1">
          <mxGeometry width="100" height="100" relative="1" as="geometry">
            <Array as="points" />
          </mxGeometry>
        </mxCell>
        <mxCell id="yRWhBtvss3XVOMyxeGll-169" value="Import Events" style="html=1;overflow=block;blockSpacing=1;whiteSpace=wrap;ellipse;fontSize=13;spacing=3.8;strokeOpacity=0;fillOpacity=100;rounded=1;absoluteArcSize=1;arcSize=9;fillColor=#979ea8;strokeWidth=1.5;lucidId=~yIeRCyaMfPm;" parent="1" vertex="1">
          <mxGeometry x="-330" y="631.9956435643564" width="120" height="90" as="geometry" />
        </mxCell>
        <mxCell id="yRWhBtvss3XVOMyxeGll-168" value="Modify Event" style="html=1;overflow=block;blockSpacing=1;whiteSpace=wrap;ellipse;fontSize=13;spacing=3.8;strokeOpacity=0;fillOpacity=100;rounded=1;absoluteArcSize=1;arcSize=9;fillColor=#fe7070;strokeWidth=1.5;lucidId=1yIeQ48BPR4-;" parent="1" vertex="1">
          <mxGeometry x="-330" y="318.00188118811883" width="120" height="90" as="geometry" />
        </mxCell>
        <mxCell id="yRWhBtvss3XVOMyxeGll-167" value="Create Event" style="html=1;overflow=block;blockSpacing=1;whiteSpace=wrap;ellipse;fontSize=13;spacing=3.8;strokeOpacity=0;fillOpacity=100;rounded=1;absoluteArcSize=1;arcSize=9;fillColor=#fe7070;strokeWidth=1.5;lucidId=~xIeha3OeAVz;" parent="1" vertex="1">
          <mxGeometry x="-330" y="209.99871287128713" width="120" height="90" as="geometry" />
        </mxCell>
        <mxCell id="yRWhBtvss3XVOMyxeGll-176" value="Export Export" style="html=1;overflow=block;blockSpacing=1;whiteSpace=wrap;ellipse;fontSize=13;spacing=3.8;strokeOpacity=0;fillOpacity=100;rounded=1;absoluteArcSize=1;arcSize=9;fillColor=#979ea8;strokeWidth=1.5;lucidId=1VIeGqV82j3G;" parent="1" vertex="1">
          <mxGeometry x="-330" y="745.7130693069307" width="120" height="90" as="geometry" />
        </mxCell>
        <mxCell id="yRWhBtvss3XVOMyxeGll-178" value="" style="html=1;jettySize=18;whiteSpace=wrap;fontSize=13;strokeColor=#3a414a;strokeOpacity=100;strokeWidth=0.8;rounded=0;startArrow=none;endArrow=block;endFill=0;endSize=12;exitX=0.122;exitY=0.173;exitPerimeter=0;entryX=0.97;entryY=0.672;entryPerimeter=0;lucidId=KYIeURdQv7Vc;" parent="1" source="yRWhBtvss3XVOMyxeGll-156" target="yRWhBtvss3XVOMyxeGll-176" edge="1">
          <mxGeometry width="100" height="100" relative="1" as="geometry">
            <Array as="points" />
          </mxGeometry>
        </mxCell>
        <mxCell id="yRWhBtvss3XVOMyxeGll-177" value="" style="html=1;jettySize=18;whiteSpace=wrap;fontSize=13;strokeColor=#3a414a;strokeOpacity=100;strokeWidth=0.8;rounded=0;startArrow=none;endArrow=block;endFill=0;endSize=12;exitX=0.001;exitY=0.465;exitPerimeter=0;entryX=0.999;entryY=0.535;entryPerimeter=0;lucidId=GYIe1NvaI2Ca;" parent="1" source="yRWhBtvss3XVOMyxeGll-155" target="yRWhBtvss3XVOMyxeGll-176" edge="1">
          <mxGeometry width="100" height="100" relative="1" as="geometry">
            <Array as="points" />
          </mxGeometry>
        </mxCell>
        <mxCell id="yRWhBtvss3XVOMyxeGll-214" value="Consult Event" style="html=1;overflow=block;blockSpacing=1;whiteSpace=wrap;ellipse;fontSize=13;spacing=3.8;strokeOpacity=0;fillOpacity=100;rounded=1;absoluteArcSize=1;arcSize=9;fillColor=#fe7070;strokeWidth=1.5;lucidId=1yIeQ48BPR4-;" parent="1" vertex="1">
          <mxGeometry x="-330" y="420.3534653465346" width="120" height="90" as="geometry" />
        </mxCell>
        <mxCell id="yRWhBtvss3XVOMyxeGll-225" style="edgeStyle=orthogonalEdgeStyle;rounded=0;orthogonalLoop=1;jettySize=auto;html=1;exitX=0.5;exitY=0.5;exitDx=0;exitDy=0;exitPerimeter=0;entryX=-0.002;entryY=0.471;entryDx=0;entryDy=0;entryPerimeter=0;endArrow=none;startFill=0;" parent="1" source="yRWhBtvss3XVOMyxeGll-213" target="yRWhBtvss3XVOMyxeGll-143" edge="1">
          <mxGeometry relative="1" as="geometry" />
        </mxCell>
        <mxCell id="yRWhBtvss3XVOMyxeGll-226" value="Employee" style="shape=umlActor;verticalLabelPosition=bottom;verticalAlign=top;html=1;outlineConnect=0;" parent="1" vertex="1">
          <mxGeometry x="-480" y="578.71" width="52.5" height="105" as="geometry" />
        </mxCell>
        <mxCell id="yRWhBtvss3XVOMyxeGll-227" style="edgeStyle=orthogonalEdgeStyle;rounded=0;orthogonalLoop=1;jettySize=auto;html=1;exitX=0.5;exitY=0.5;exitDx=0;exitDy=0;exitPerimeter=0;entryX=-0.002;entryY=0.672;entryDx=0;entryDy=0;entryPerimeter=0;endArrow=none;startFill=0;" parent="1" source="yRWhBtvss3XVOMyxeGll-226" edge="1">
          <mxGeometry relative="1" as="geometry">
            <mxPoint x="-453.75" y="702.2099999999998" as="sourcePoint" />
            <mxPoint x="-391.1800000000003" y="629.4000000000001" as="targetPoint" />
          </mxGeometry>
        </mxCell>
        <mxCell id="yRWhBtvss3XVOMyxeGll-231" value="" style="group" parent="1" vertex="1" connectable="0">
          <mxGeometry x="-242.5" y="880" width="295" height="92" as="geometry" />
        </mxCell>
        <mxCell id="yRWhBtvss3XVOMyxeGll-232" value="" style="html=1;overflow=block;blockSpacing=1;whiteSpace=wrap;fontSize=16.7;fontColor=default;spacing=3.8;strokeOpacity=100;fillOpacity=100;rounded=1;absoluteArcSize=1;arcSize=162;fillColor=#ffffff;strokeWidth=1.5;lucidId=qHtdmG4HjMHo;container=0;collapsible=0;" parent="yRWhBtvss3XVOMyxeGll-231" vertex="1">
          <mxGeometry width="295" height="92" as="geometry" />
        </mxCell>
        <mxCell id="yRWhBtvss3XVOMyxeGll-233" value="Terminator" style="html=1;overflow=block;blockSpacing=1;whiteSpace=wrap;fontSize=16.7;fontColor=#979ea8;spacing=3.8;strokeColor=#979ea8;strokeOpacity=100;fillOpacity=100;rounded=1;absoluteArcSize=1;arcSize=75;fillColor=#979ea8;strokeWidth=1.5;lucidId=IHtdpJWPwF3h;" parent="yRWhBtvss3XVOMyxeGll-231" vertex="1">
          <mxGeometry x="41.25" y="10" width="82" height="40" as="geometry" />
        </mxCell>
        <mxCell id="yRWhBtvss3XVOMyxeGll-234" value="" style="html=1;overflow=block;blockSpacing=1;whiteSpace=wrap;fontSize=16.7;fontColor=default;spacing=3.8;strokeColor=#fe7070;strokeOpacity=100;fillOpacity=100;rounded=1;absoluteArcSize=1;arcSize=82;fillColor=#fe7070;strokeWidth=1.5;lucidId=SHtdkWkZQMI-;" parent="yRWhBtvss3XVOMyxeGll-231" vertex="1">
          <mxGeometry x="171.75" y="10" width="82" height="41" as="geometry" />
        </mxCell>
        <mxCell id="yRWhBtvss3XVOMyxeGll-235" value="Already exist" style="html=1;overflow=block;blockSpacing=1;whiteSpace=wrap;fontSize=16.7;spacing=0;strokeOpacity=100;rounded=1;absoluteArcSize=1;arcSize=9;fillColor=none;strokeWidth=NaN;strokeColor=none;lucidId=mItdmbgDk1Mh;" parent="yRWhBtvss3XVOMyxeGll-231" vertex="1">
          <mxGeometry x="20" y="51" width="123" height="31" as="geometry" />
        </mxCell>
        <mxCell id="yRWhBtvss3XVOMyxeGll-236" value="developed by us" style="html=1;overflow=block;blockSpacing=1;whiteSpace=wrap;fontSize=16.7;spacing=0;strokeOpacity=100;rounded=1;absoluteArcSize=1;arcSize=9;fillColor=none;strokeWidth=NaN;strokeColor=none;lucidId=SItdEPhbv4RO;" parent="yRWhBtvss3XVOMyxeGll-231" vertex="1">
          <mxGeometry x="158.5" y="50" width="123" height="31" as="geometry" />
        </mxCell>
      </root>
    </mxGraphModel>
  </diagram>
</mxfile>
